<svg version="1.1" class="account-icon" xmlns="http://www.w3.org/2000/svg" xmlns:xlink="http://www.w3.org/1999/xlink" x="0px" y="0px" viewBox="0 0 120 120" enable-background="new 0 0 120 120" xml:space="preserve"><path fill="#1D1D1B" d="M60.8,5.9C30.3,5.9,5.6,30.5,5.6,61s24.7,55.1,55.1,55.1s55.1-24.7,55.1-55.1S91.2,5.9,60.8,5.9z M60.8,22.4 c9.1,0,16.5,7.4,16.5,16.5c0,9.2-7.4,16.5-16.5,16.5S44.2,48.1,44.2,39C44.2,29.8,51.6,22.4,60.8,22.4z M60.8,100.7 c-13.8,0-25.9-7.1-33.1-17.8C27.8,72,49.8,66,60.8,66s32.9,6,33.1,17C86.7,93.6,74.6,100.7,60.8,100.7z"/><path class="ast-hf-account-unfill" fill="none" d="M60.8,8h118.5v118.5H60.8V8z"/></svg>